<svg width="17" height="16" viewBox="0 0 17 16" fill="none" xmlns="http://www.w3.org/2000/svg">
<mask id="mask0_1227_364" style="mask-type:alpha" maskUnits="userSpaceOnUse" x="0" y="0" width="17" height="16">
<rect x="0.199951" width="16" height="16" fill="#D9D9D9"/>
</mask>
<g mask="url(#mask0_1227_364)">
<path d="M3.53328 12.6666H4.46662L10.2166 6.91659L9.28328 5.98325L3.53328 11.7333V12.6666ZM13.0666 5.94992L10.2333 3.14992L11.1666 2.21659C11.4222 1.96103 11.7362 1.83325 12.1086 1.83325C12.4806 1.83325 12.7944 1.96103 13.05 2.21659L13.9833 3.14992C14.2388 3.40547 14.3722 3.71392 14.3833 4.07525C14.3944 4.43614 14.2722 4.74436 14.0166 4.99992L13.0666 5.94992ZM12.1 6.93325L5.03328 13.9999H2.19995V11.1666L9.26662 4.09992L12.1 6.93325Z" fill="#A3A3A3"/>
</g>
</svg>
