<svg width="32" height="32" viewBox="0 0 32 32" fill="none" xmlns="http://www.w3.org/2000/svg">
<mask id="mask0_421_16" style="mask-type:alpha" maskUnits="userSpaceOnUse" x="0" y="0" width="32" height="32">
<rect width="32" height="32" fill="#D9D9D9"/>
</mask>
<g mask="url(#mask0_421_16)">
<path d="M16 4.1001C22.6281 4.1001 28 9.47197 28 16.1001C28 22.0903 23.6144 27.0548 17.8806 27.9553V19.5717H20.6684L20.6753 19.5717L21.2078 16.1001H17.8806V13.8515C17.8806 12.9067 18.339 11.9814 19.8238 11.9775C19.8249 11.9775 19.8259 11.9775 19.827 11.9775H21.3391L21.3456 11.9774V9.02525C21.3456 9.02525 19.9713 8.78854 18.6564 8.78854C18.6526 8.78854 18.6489 8.78854 18.6451 8.78854C15.9061 8.79048 14.1195 10.4539 14.1195 13.4568V16.1001H11.0814L11.0749 16.1001V19.5717H14.1195V27.9542C8.38233 27.0511 4 22.088 4 16.1001C4 9.47197 9.37188 4.1001 16 4.1001Z" fill="#9C9C9C"/>
</g>
</svg>
