<svg width="32" height="32" viewBox="0 0 32 32" fill="none" xmlns="http://www.w3.org/2000/svg">
<mask id="mask0_421_69" style="mask-type:alpha" maskUnits="userSpaceOnUse" x="0" y="0" width="32" height="32">
<rect width="32" height="32" fill="#D9D9D9"/>
</mask>
<g mask="url(#mask0_421_69)">
<path d="M13.3334 26.6667H8.00002C7.62224 26.6667 7.30535 26.5387 7.04935 26.2827C6.79424 26.0276 6.66668 25.7111 6.66668 25.3333V16H4.40002C4.08891 16 3.87779 15.8556 3.76668 15.5667C3.65557 15.2778 3.72224 15.0333 3.96668 14.8333L15.1 4.80002C15.3445 4.55557 15.6445 4.43335 16 4.43335C16.3556 4.43335 16.6556 4.55557 16.9 4.80002L21.3334 8.80002V6.66668C21.3334 6.28891 21.4614 5.97202 21.7174 5.71602C21.9725 5.46091 22.2889 5.33335 22.6667 5.33335H24C24.3778 5.33335 24.6942 5.46091 24.9494 5.71602C25.2054 5.97202 25.3333 6.28891 25.3333 6.66668V12.4L28.0333 14.8333C28.2778 15.0333 28.3445 15.2778 28.2333 15.5667C28.1222 15.8556 27.9111 16 27.6 16H25.3333V25.3333C25.3333 25.7111 25.2054 26.0276 24.9494 26.2827C24.6942 26.5387 24.3778 26.6667 24 26.6667H18.6667V20C18.6667 19.6222 18.5391 19.3053 18.284 19.0493C18.028 18.7942 17.7111 18.6667 17.3334 18.6667H14.6667C14.2889 18.6667 13.9725 18.7942 13.7174 19.0493C13.4614 19.3053 13.3334 19.6222 13.3334 20V26.6667ZM13.3334 13.3667H18.6667C18.6667 12.6556 18.4 12.072 17.8667 11.616C17.3334 11.1609 16.7111 10.9333 16 10.9333C15.2889 10.9333 14.6667 11.1609 14.1334 11.616C13.6 12.072 13.3334 12.6556 13.3334 13.3667Z" fill="#9C9C9C"/>
</g>
</svg>
